<?xml version="1.0" encoding="utf-8"?>
<!-- Uploaded to: SVG Repo, www.svgrepo.com, Generator: SVG Repo Mixer Tools -->
<svg width="800px" height="800px" viewBox="0 0 20 20" xmlns="http://www.w3.org/2000/svg">
  <g id="add-user-left-6" transform="translate(-2 -2)">
    <path id="secondary" fill="#2ca9bc" d="M12,13h2a7,7,0,0,1,7,7h0a1,1,0,0,1-1,1H6a1,1,0,0,1-1-1H5a7,7,0,0,1,7-7Z"/>
    <path id="primary" d="M11,3.41A5.11,5.11,0,0,1,13,3a5,5,0,1,1-4.59,7" fill="none" stroke="#000000" stroke-linecap="round" stroke-linejoin="round" stroke-width="2"/>
    <path id="primary-2" data-name="primary" d="M7,5H3M5,7V3m9,10H12a7,7,0,0,0-7,7H5a1,1,0,0,0,1,1H20a1,1,0,0,0,1-1h0A7,7,0,0,0,14,13Z" fill="none" stroke="#000000" stroke-linecap="round" stroke-linejoin="round" stroke-width="2"/>
  </g>
</svg>