<?xml version="1.0" encoding="utf-8"?><!-- Uploaded to: SVG Repo, www.svgrepo.com, Generator: SVG Repo Mixer Tools -->
<svg width="20px" height="20px" viewBox="0 0 24 24" fill="none" xmlns="http://www.w3.org/2000/svg">
<path d="M14.1213 14.1213C13.7018 14.5409 13.1672 14.8266 12.5853 14.9424C12.0033 15.0581 11.4001 14.9987 10.8519 14.7716C10.3038 14.5446 9.83524 14.1601 9.50559 13.6667C9.17595 13.1734 9 12.5933 9 12C9 11.4067 9.17595 10.8266 9.50559 10.3333C9.83524 9.83994 10.3038 9.45542 10.8519 9.22836C11.4001 9.0013 12.0033 8.94189 12.5853 9.05764C13.1672 9.1734 13.7018 9.45912 14.1213 9.87868M20.25 12C20.25 16.5563 16.5563 20.25 12 20.25C7.44365 20.25 3.75 16.5563 3.75 12C3.75 7.44365 7.44365 3.75 12 3.75C16.5563 3.75 20.25 7.44365 20.25 12Z" stroke="#3A52EE" stroke-width="1.5" stroke-linecap="round" stroke-linejoin="round"/>
</svg>