<?xml version="1.0" encoding="utf-8"?>
<!-- Uploaded to: SVG Repo, www.svgrepo.com, Generator: SVG Repo Mixer Tools -->
<svg width="800px" height="800px" viewBox="0 0 17.5 17.5" xmlns="http://www.w3.org/2000/svg">
  <g id="livechat_headphone" data-name="livechat headphone" transform="translate(0.75 0.75)">
    <g id="Group_2" data-name="Group 2">
      <path id="Path_2" data-name="Path 2" d="M-3.339,14.3h0A3.479,3.479,0,0,0,0,10.961V6S-.257,0-5,0s-5,7-5,7" transform="translate(13 0)" fill="none" stroke="#000000" stroke-miterlimit="10" stroke-width="1.5"/>
      <rect id="Rectangle" width="3" height="5" rx="1.5" stroke-width="1.5" fill="none" stroke="#000000" stroke-miterlimit="10" transform="translate(13 5)"/>
      <rect id="Rectangle-2" data-name="Rectangle" width="3" height="5" rx="1.5" transform="translate(0 5)" fill="none" stroke="#000000" stroke-miterlimit="10" stroke-width="1.5"/>
      <path id="Path_3" data-name="Path 3" d="M1,0A1,1,0,0,0,0,1V2A1,1,0,0,0,1,3H2A1,1,0,0,0,3,2V1A1,1,0,0,0,2,0Z" transform="translate(7 13)" fill="none" stroke="#000000" stroke-miterlimit="10" stroke-width="1.5"/>
    </g>
  </g>
</svg>