<?xml version="1.0" encoding="utf-8"?>
<!-- Uploaded to: SVG Repo, www.svgrepo.com, Generator: SVG Repo Mixer Tools -->
<svg width="800px" height="800px" viewBox="0 -0.41 66.61 66.61" xmlns="http://www.w3.org/2000/svg">
<defs>
<style>.cls-1{fill:#42e5ba;}.cls-2,.cls-3{fill:none;stroke:#000000;stroke-linecap:round;}.cls-2{stroke-linejoin:bevel;}.cls-3{stroke-linejoin:round;}</style>
</defs>
<title>teamshape_iconsset_v1</title>
<g id="Layer_1" data-name="Layer 1">
<path class="cls-1" d="M26,33l-1.22,9.69H30.7l.56-4.43c.56-4.44,1.51-5.16,1.51-5.16l-1-4.23H30.69A4.72,4.72,0,0,0,26,33Z"/>
<path class="cls-2" d="M39.93,42.93A10.5,10.5,0,1,1,50.42,53.42"/>
<line class="cls-2" x1="50.42" y1="37.75" x2="50.42" y2="48.1"/>
<line class="cls-2" x1="55.6" y1="42.93" x2="45.25" y2="42.93"/>
<circle class="cls-3" cx="40.38" cy="22.52" r="6.38"/>
<path class="cls-3" d="M41,31.58H36.28a4.73,4.73,0,0,0-4.7,4.14l-2.22,17.7H50.42"/>
<circle class="cls-3" cx="23.39" cy="14.88" r="5.75"/>
<path class="cls-3" d="M30.7,42.73H13.45l2-16A4.26,4.26,0,0,1,19.68,23h7.41a4.26,4.26,0,0,1,4.23,3.73l1.45,6.37s-1,.72-1.51,5.16Z"/>
</g>
</svg>